<svg xmlns="http://www.w3.org/2000/svg" viewBox="0 0 48 48" role="img" aria-label="Amazon">
  <path fill="#f5f5f5" d="M24.2 30.5c-6.8 0-10.8-3.1-10.8-8.4 0-5 4.1-8.3 10.2-8.3 4.2 0 7.7 1.5 9.1 4.1l-2.5 1.5c-1-1.8-3.2-2.9-5.9-2.9-4.3 0-7.1 2.6-7.1 6.3 0 3.9 2.7 6 7.8 6 1.9 0 3.6-.3 4.9-1v-3.8h-7.2v-2.2h10v8.2c-1.9 1.4-5.2 2.5-8.5 2.5z"/>
  <path fill="#FF9900" d="M13.5 33.5c3.6 2.8 8.3 4.4 13.5 4.4 5.5 0 10.5-1.8 14.3-4.9-1.4 1.2-3.2 1.9-5.1 1.9-2.3 0-4.3-1-5.7-2.6-1.8.5-3.6.8-5.5 1-1.6.2-3.2.2-4.8.1 1.4 1 3.2 1.6 5.1 1.6 1.7 0 3.2-.4 4.6-1.2z"/>
</svg>
