<svg xmlns="http://www.w3.org/2000/svg" viewBox="0 0 48 48" role="img" aria-label="Apple">
  <path fill="#f5f5f5" d="M31.2 24.8c-.1-3.1 2.5-4.6 2.6-4.7-1.4-2-3.6-2.3-4.4-2.3-1.9-.2-3.7 1.1-4.6 1.1-.9 0-2.4-1.1-4-1.1-2.1 0-4 1.2-5.1 3.1-2.2 3.8-.6 9.4 1.5 12.5 1 1.5 2.2 3.1 3.8 3 1.5-.1 2.1-1 3.9-1s2.3 1 3.9.9c1.6 0 2.6-1.5 3.6-3 1.1-1.6 1.6-3.2 1.6-3.3-.1 0-3.1-1.2-3.1-4.7z"/>
  <path fill="#f5f5f5" d="M28.5 14.2c.8-1 1.4-2.4 1.2-3.8-1.2.1-2.6.8-3.5 1.8-.8.9-1.4 2.3-1.2 3.7 1.3.1 2.6-.7 3.5-1.7z"/>
</svg>
