<svg xmlns="http://www.w3.org/2000/svg" viewBox="0 0 48 48" role="img" aria-label="Google">
  <path fill="#4285F4" d="M43.6 24.5c0-1.6-.1-2.7-.4-3.9H24v7.1h11.1c-.5 2.8-2 5.2-4.2 6.8v5.6h6.8c4-3.7 6.3-9.1 6.3-15.6z"/>
  <path fill="#34A853" d="M24 44c5.7 0 10.5-1.9 14-5.1l-6.8-5.6c-1.9 1.3-4.3 2-7.2 2-5.5 0-10.1-3.7-11.8-8.7H5.2v5.7C8.7 39.8 15.8 44 24 44z"/>
  <path fill="#FBBC05" d="M12.2 26.6c-.4-1.2-.6-2.5-.6-3.8s.2-2.6.6-3.8V13.3H5.2C3.8 16.4 3 19.9 3 23.6s.8 7.2 2.2 10.3l7-5.3z"/>
  <path fill="#EA4335" d="M24 11.8c3.1 0 5.8 1.1 8 3.2l6-6C34.5 5.1 29.7 3 24 3 15.8 3 8.7 7.2 5.2 13.3l7 5.3c1.7-5 6.3-8.7 11.8-8.7z"/>
</svg>
